<svg xmlns="http://www.w3.org/2000/svg" id="Layer_1" data-name="Layer 1" viewBox="0 0 64 64"><circle cx="43.17" cy="20.93" r="2" fill="#ffffff"/><circle cx="32.714" cy="12.5" r="3" fill="#ffffff"/><circle cx="14" cy="26" r="2" fill="#ffffff"/><path d="M32,62A30,30,0,1,0,2,32,30.034,30.034,0,0,0,32,62ZM32,4A28,28,0,1,1,4,32,28.032,28.032,0,0,1,32,4Z" fill="#ffffff"/><path d="M16.847,48.9c3.8,2.419,8.224,2.937,11.777,3.353,2.416.283,4.7.55,5.284,1.353a1,1,0,0,0,1.788-.788c-.036-.18-.36-1.76-.979-3.93a19.825,19.825,0,0,1,1.29-4.969c.391-.558,2.126-.925,3.812-1.278,2.739-.574,6.146-1.287,8.955-3.452,4.245-3.272,4.914-13.582,4.94-14.019a1,1,0,0,0-.976-1.06c-.336-.005-8.4-.12-13.777,5.335-3.52,3.572-4.681,12.577-4.819,13.748-.106.278-.373,1-.651,1.889-.308-.848-.649-1.713-1.022-2.567a16.042,16.042,0,0,0-.886-11.273c.128-1.4.547-7.337-1.277-10.257-2.951-4.721-8.677-5.913-8.919-5.961a1,1,0,0,0-1.183.822c-.126.783-1.158,7.743,1.321,10.718A15.357,15.357,0,0,0,27.3,30.417c.874.4,2.2,1,2.307,1.33a.933.933,0,0,0,.083.16l-.01.006a14.5,14.5,0,0,1,1.345,7.7,14.637,14.637,0,0,0-3.05-3.9c-7.442-6.3-17.659-5.238-18.091-5.19a1,1,0,0,0-.877,1.143C9.1,32.217,11.127,45.255,16.847,48.9ZM40.386,30.845c3.6-3.659,8.761-4.494,11.085-4.683C48.3,28.877,39.921,36.233,36.524,40.878,37.081,37.836,38.261,33,40.386,30.845ZM29.7,29.1c-1.316-3.354-5.533-9.157-7.492-11.764a12.227,12.227,0,0,1,6.4,4.7C29.6,23.628,29.764,26.773,29.7,29.1Zm-3.017,8.137c3.323,2.816,5.531,9.936,6.495,13.644-4.092-4.933-17.736-15.3-21.933-18.438C14.015,32.373,21.267,32.646,26.686,37.238Z" fill="#ffffff"/></svg>