<?xml version="1.0" encoding="utf-8"?>
<!-- Generator: Adobe Illustrator 24.3.0, SVG Export Plug-In . SVG Version: 6.00 Build 0)  -->
<svg version="1.1" id="Layer_1" xmlns="http://www.w3.org/2000/svg" xmlns:xlink="http://www.w3.org/1999/xlink" x="0px" y="0px"
	 width="150" height="26.4" viewBox="0 0 150 26.4" style="enable-background:new 0 0 150 26.4;" xml:space="preserve">
<style type="text/css">
	.st0{fill:#231F20;}
</style>
<desc>Created with Sketch.</desc>
<path className="st0" d="M93.9,9.1v7.5c0,4.3,3.3,7.9,7.6,8.2c1,0.1,2.1,0.2,3.2,0.2c1.1,0,2.2-0.1,3.2-0.2c4.2-0.3,7.6-3.9,7.6-8.2V9.1
	c0-4.3-3.3-7.9-7.6-8.2c-1-0.1-2.1-0.2-3.2-0.2c-1.1,0-2.2,0.1-3.2,0.2C97.2,1.3,93.9,4.8,93.9,9.1z M107.4,5.5
	c1.9,0.1,3.4,1.7,3.4,3.6v7.5c0,1.9-1.5,3.5-3.4,3.6c-0.9,0.1-1.8,0.1-2.7,0.1c-1,0-1.9,0-2.8-0.1c-1.9-0.1-3.4-1.7-3.4-3.6V9.1
	c0-1.9,1.5-3.5,3.4-3.6c0.9-0.1,1.8-0.1,2.8-0.1C105.6,5.4,106.5,5.4,107.4,5.5z"/>
<path className="st0" d="M3.8,24.8H2.6c-1,0-1.7-0.8-1.7-1.7V2.6c0-1,0.8-1.7,1.7-1.7h1.1c1,0,1.7,0.8,1.7,1.7v20.4
	C5.5,24,4.7,24.8,3.8,24.8z"/>
<path className="st0" d="M11.5,24.8h-1.1c-1,0-1.7-0.8-1.7-1.7V2.6c0-1,0.8-1.7,1.7-1.7h10.3c5.1,0,9.3,4.2,9.3,9.3V23
	c0,1-0.8,1.7-1.7,1.7H27c-1,0-1.7-0.8-1.7-1.7V10.2c0-2.6-2.1-4.7-4.7-4.7h-7.4v17.6C13.2,24,12.4,24.8,11.5,24.8z"/>
<path className="st0" d="M37.1,15.7c0,2.6,1.1,5,5.3,5h7.3c0.9,0,1.6,0.8,1.6,1.7v0.7c0,1-0.7,1.7-1.6,1.7h-7.3c-7.3,0-9.4-4.1-9.4-9.2
	v-5.5c0-5.1,2.1-9.2,9.4-9.3h7.3c0.9,0,1.6,0.8,1.6,1.7v0.7c0,1-0.7,1.7-1.6,1.7h-7.3c-4.2,0-5.3,2.5-5.3,5.1V15.7z"/>
<path className="st0" d="M57.2,24.8h-1.1c-1,0-1.7-0.8-1.7-1.7V2.6c0-1,0.8-1.7,1.7-1.7h1.1c1,0,1.7,0.8,1.7,1.7v20.4
	C59,24,58.2,24.8,57.2,24.8z"/>
<path className="st0" d="M89,24.8h-1.1c-1,0-1.7-0.8-1.7-1.7V2.6c0-1,0.8-1.7,1.7-1.7H89c1,0,1.7,0.8,1.7,1.7v20.4
	C90.7,24,89.9,24.8,89,24.8z"/>
<path className="st0" d="M75.7,0.8h-8.9h0h-3c-1,0-1.7,0.5-1.7,1.5v13.6l0,0v7.1c0,1,0.8,1.7,1.7,1.7h1.1c1,0,1.7-0.8,1.7-1.7v-7h8.9
	c4.3,0,7.4-3.1,7.5-7.4V8.6C83,4.2,80,0.8,75.7,0.8z M78.8,9.1c-0.2,1.6-1.6,2.8-3.2,2.8h-8.9V5.2l0-0.1h8.7c1.8,0,3.5,1.5,3.5,3.3
	L78.8,9.1z"/>
<g>
	<g>
		<path className="st0" d="M132.3,1.1h-5.8c-2.4,0-4.4,2-4.4,4.4v5.7c0,0.5,0.4,0.9,0.9,0.9h0.7c0.5,0,0.9-0.4,0.9-0.9V5.5
			c0-1,0.8-1.8,1.8-1.8h5.8c0.5,0,0.9-0.4,0.9-0.9V2C133.3,1.5,132.8,1.1,132.3,1.1L132.3,1.1z"/>
	</g>
	<g>
		<path className="st0" d="M141.4,1.1h-5.8c-0.5,0-0.9,0.4-0.9,0.9v0.7c0,0.5,0.4,0.9,0.9,0.9h5.8c1,0,1.8,0.8,1.8,1.8v5.7
			c0,0.5,0.4,0.9,0.9,0.9h0.7c0.5,0,0.9-0.4,0.9-0.9V5.5C145.8,3.1,143.9,1.1,141.4,1.1L141.4,1.1z"/>
	</g>
</g>
<g>
	<g>
		<path className="st0" d="M144.9,13.7h-0.7c-0.5,0-0.9,0.4-0.9,0.9v5.8c0,1-0.8,1.8-1.8,1.8h-5.8c-0.5,0-0.9,0.4-0.9,0.9v0.7
			c0,0.5,0.4,0.9,0.9,0.9h5.8c2.4,0,4.4-2,4.4-4.4v-5.8C145.8,14.1,145.4,13.7,144.9,13.7L144.9,13.7z"/>
	</g>
	<g>
		<path className="st0" d="M123.8,13.7h-0.7c-0.5,0-0.9,0.4-0.9,0.9v5.8c0,2.4,2,4.4,4.4,4.4h5.8c0.5,0,0.9-0.4,0.9-0.9v-0.7
			c0-0.5-0.4-0.9-0.9-0.9h-5.8c-1,0-1.8-0.8-1.8-1.8v-5.8C124.7,14.1,124.3,13.7,123.8,13.7L123.8,13.7z"/>
	</g>
</g>
<path className="st0" d="M137.2,7h-6.3c-1.5,0-2.8,1.3-2.8,2.8v6.3c0,1.5,1.3,2.8,2.8,2.8h6.3c1.5,0,2.8-1.3,2.8-2.8V9.8
	C140,8.3,138.7,7,137.2,7z M137.3,16.9h-6.6c-0.3,0-0.6-0.3-0.6-0.6V9.6c0-0.3,0.3-0.6,0.6-0.6h6.6c0.3,0,0.6,0.3,0.6,0.6v6.6
	C137.9,16.6,137.6,16.9,137.3,16.9z"/>
<path className="st0" d="M147.6,0.8V1h-0.4v1.1h-0.3V1h-0.4V0.8H147.6z M149,2.1l0-0.8c0-0.1,0-0.2,0-0.4h0c0,0.1-0.1,0.3-0.1,0.4
	l-0.2,0.7h-0.3l-0.2-0.8c0-0.1-0.1-0.3-0.1-0.4h0c0,0.1,0,0.3,0,0.4l0,0.8h-0.3l0.1-1.3h0.4l0.2,0.7c0,0.1,0.1,0.2,0.1,0.3h0
	c0-0.1,0.1-0.2,0.1-0.3l0.2-0.7h0.4l0.1,1.3H149z"/>
</svg>
